<?xml version="1.0" encoding="UTF-8" standalone="no"?>
<!-- Created with Inkscape (http://www.inkscape.org/) -->

<svg
   width="185.54366mm"
   height="23.751812mm"
   viewBox="0 0 185.54366 23.751812"
   version="1.1"
   id="svg5"
   xmlns="http://www.w3.org/2000/svg"
   xmlns:svg="http://www.w3.org/2000/svg"
   xmlns:rdf="http://www.w3.org/1999/02/22-rdf-syntax-ns#"
   xmlns:cc="http://creativecommons.org/ns#"
   xmlns:dc="http://purl.org/dc/elements/1.1/"
   fill="#fff">
  <title
     id="title78779">Learn-Static</title>
  <defs
     id="defs2">
    <rect
       x="106.72295"
       y="237.87645"
       width="1009.3676"
       height="335.59866"
       id="rect3158" />
  </defs>
  <g
     id="layer1"
     transform="translate(-30.562546,-64.616241)">
    <g
       aria-label="{Learn-Static}"
       transform="scale(0.26458333)"
       id="text3156"
       style="font-size:85.3333px;line-height:1.25;white-space:pre;shape-inside:url(#rect3158)">
      <path
         d="m 142.05064,333.9895 q -7.97866,0 -12.50133,-3.37067 -4.47999,-3.37066 -4.47999,-9.856 0,-0.98133 0.256,-2.30399 0.29866,-1.32267 0.93866,-3.712 0.85333,-3.24267 1.28,-5.33333 0.42667,-2.176 0.896,-4.13867 0.34133,-1.408 0.512,-2.47466 0.21333,-1.10934 0.21333,-1.92 0,-2.38934 -1.408,-3.968 -1.408,-1.57867 -4.35199,-2.64533 -2.90134,-1.06667 -7.89333,-2.00534 v -5.97333 q 5.07733,-1.19466 7.97866,-2.304 2.90133,-1.152 4.26666,-2.688 1.408,-1.57866 1.408,-3.88266 0,-1.32267 -0.384,-3.24267 -0.384,-1.92 -1.23733,-5.20533 l -0.512,-2.00533 q -0.98133,-3.84 -1.49333,-6.05866 -0.46933,-2.26134 -0.46933,-3.456 0,-6.48533 4.47999,-9.856 4.52267,-3.37066 12.50133,-3.37066 1.664,0 3.712,0.256 2.09067,0.21333 3.79733,0.68266 v 6.57067 q -2.304,-0.34134 -4.13866,-0.59734 -1.792,-0.256 -2.60267,-0.256 -3.75466,0 -6.18666,1.792 -2.432,1.792 -2.432,5.46133 0,1.23734 0.34133,3.2 0.384,1.96267 1.28,5.93067 l 0.256,1.024 q 1.10933,4.82133 1.10933,9.30133 0,4.60799 -1.87733,7.25333 -1.87733,2.64533 -6.05866,3.92533 v 0.42666 q 4.096,1.45067 6.27199,4.43734 2.176,2.98666 2.176,6.69866 0,1.92 -0.34133,3.88266 -0.34133,1.96267 -1.28,5.888 l -0.72533,2.90133 q -0.68267,2.56 -0.98134,4.13867 -0.256,1.62133 -0.17066,3.28533 0.0853,2.09067 1.28,3.66933 1.23733,1.62134 3.15733,2.47467 1.96267,0.85333 4.18133,0.85333 1.74933,0 6.74133,-0.768 v 6.48533 q -1.36533,0.384 -3.54133,0.59734 -2.176,0.256 -3.968,0.256 z"
         style="font-weight:bold;font-family:JuliaMono;-inkscape-font-specification:'JuliaMono Bold'"
         id="path78730" />
      <path
         d="m 164.49317,254.71486 h 11.09333 v 52.47998 h 28.67199 v 9.472 h -39.76532 z"
         style="font-weight:bold;font-family:JuliaMono;-inkscape-font-specification:'JuliaMono Bold'"
         id="path78732" />
      <path
         d="m 236.17301,317.52017 q -5.504,0 -10.496,-2.73067 -4.992,-2.77333 -8.14933,-8.19199 -3.11466,-5.46133 -3.11466,-13.14133 0,-7.21066 2.60266,-12.75733 2.60267,-5.58933 7.38133,-8.66133 4.82133,-3.072 11.264,-3.072 10.28266,0 14.80533,7.04 4.56533,7.04 4.56533,20.01066 h -30.37866 q 0.256,6.31466 3.456,9.55733 3.24267,3.24266 8.74666,3.24266 4.01067,0 7.72267,-1.152 3.75466,-1.152 5.33333,-2.60266 l 3.92533,7.16799 q -1.664,1.32267 -4.56533,2.56 -2.85867,1.23734 -6.35733,1.96267 -3.456,0.768 -6.74133,0.768 z m 9.38666,-29.35466 q 0,-3.19999 -1.28,-5.71733 -1.28,-2.56 -3.54133,-4.01066 -2.26133,-1.45067 -5.07733,-1.45067 -2.85867,0 -5.29067,1.408 -2.432,1.408 -3.88266,3.968 -1.408,2.51733 -1.408,5.80266 z"
         style="font-weight:bold;font-family:JuliaMono;-inkscape-font-specification:'JuliaMono Bold'"
         id="path78734" />
      <path
         d="m 281.27153,317.52017 q -7.424,0 -11.30666,-3.712 -3.88267,-3.712 -3.88267,-10.112 0,-8.78932 6.656,-12.28799 6.656,-3.49867 16.63999,-3.49867 h 5.20533 v -1.87733 q 0,-1.92 -0.81066,-3.84 -0.81067,-1.96266 -2.77333,-3.32799 -1.96267,-1.36534 -5.248,-1.36534 -3.2,0 -6.144,1.32267 -2.90133,1.28 -5.76,3.456 l -5.12,-6.48533 q 3.92534,-3.28534 8.10667,-4.94933 4.224,-1.70667 9.98399,-1.70667 9.77067,0 13.90933,4.65066 4.18133,4.65067 4.18133,12.84267 v 16.55466 q 0,5.37599 0.85334,13.48266 h -10.58133 q -0.29867,-2.60267 -0.42667,-6.05867 -3.968,6.912 -13.48266,6.912 z m -5.888,-14.46399 q 0,3.45599 2.432,5.11999 2.47467,1.664 6.016,1.664 5.41866,0 8.02133,-3.79733 2.64533,-3.79733 2.64533,-10.70933 h -3.49866 q -7.808,0 -11.73333,1.792 -3.88267,1.74933 -3.88267,5.93067 z"
         style="font-weight:bold;font-family:JuliaMono;-inkscape-font-specification:'JuliaMono Bold'"
         id="path78736" />
      <path
         d="m 324.02338,301.73351 q 0.0427,-4.736 0.0427,-12.11733 0,-4.52266 -0.256,-6.69866 -0.256,-2.21867 -0.85333,-5.504 h -6.99733 v -7.68 h 15.48799 l 1.57867,7.936 q 2.00533,-5.07733 5.67466,-6.99733 3.66934,-1.96267 7.63733,-1.96267 2.73067,0 6.22934,1.62134 3.54133,1.62133 5.71733,3.75466 l -5.888,6.99733 q -1.408,-1.32267 -3.37067,-2.09066 -1.92,-0.81067 -4.82133,-0.81067 -2.688,0 -4.94933,1.87733 -2.21867,1.87733 -3.54133,5.54667 -1.32267,3.62666 -1.32267,8.78933 v 22.27199 h -10.41066 z"
         style="font-weight:bold;font-family:JuliaMono;-inkscape-font-specification:'JuliaMono Bold'"
         id="path78738" />
      <path
         d="m 369.33522,280.65618 q 0,-2.38933 -0.128,-4.86399 -0.128,-2.51734 -0.29866,-4.864 l -0.0853,-1.28 h 10.06933 l 0.59734,6.912 q 2.38933,-3.88267 5.84533,-5.76 3.456,-1.92 8.14933,-1.92 4.56533,0 7.76533,2.176 3.24266,2.176 4.90666,6.272 1.664,4.09599 1.664,9.81333 v 29.52532 h -10.58133 v -26.11199 q 0,-5.632 -1.83466,-9.55733 -1.792,-3.92533 -6.528,-3.92533 -4.992,0 -7.168,4.73599 -2.13333,4.736 -2.13333,11.47733 v 23.38133 h -10.24 z"
         style="font-weight:bold;font-family:JuliaMono;-inkscape-font-specification:'JuliaMono Bold'"
         id="path78740" />
      <path
         d="m 422.45508,288.42151 h 34.21866 v 9.38667 h -34.21866 z"
         style="font-weight:bold;font-family:JuliaMono;-inkscape-font-specification:'JuliaMono Bold'"
         id="path78742" />
      <path
         d="m 475.53224,299.60018 q 3.84,4.09599 7.46667,6.27199 3.66933,2.176 7.29599,2.176 5.03467,0 8.064,-2.176 3.02933,-2.21866 3.02933,-6.52799 0,-2.64534 -1.32266,-4.26667 -1.32267,-1.62133 -3.41333,-2.56 -2.048,-0.98133 -6.016,-2.304 -0.68267,-0.21333 -2.21867,-0.72533 -1.536,-0.55467 -2.816,-1.06667 -4.65066,-1.83466 -8.02133,-4.01066 -3.37066,-2.21867 -5.41866,-5.46133 -2.00533,-3.24267 -2.00533,-7.68 0,-5.248 2.77333,-9.17333 2.77333,-3.92533 7.68,-6.016 4.90666,-2.13333 11.13599,-2.13333 6.35733,0 10.92266,2.26133 4.608,2.21867 8.96,6.86934 l -6.912,6.22933 q -3.2,-3.11467 -6.35733,-4.69334 -3.15733,-1.62133 -7.12533,-1.62133 -2.85866,0 -5.29066,0.896 -2.38934,0.85333 -3.84,2.64533 -1.45067,1.792 -1.45067,4.39467 0,2.73066 1.74933,4.608 1.74934,1.83466 4.352,3.02933 2.64534,1.152 7.21067,2.73066 5.84533,2.00534 9.51466,3.79734 3.66933,1.792 6.22933,5.07733 2.60267,3.28533 2.60267,8.40533 0,5.71733 -2.73067,9.98399 -2.73067,4.26667 -7.68,6.57067 -4.94933,2.304 -11.43466,2.304 -6.99733,0 -12.37333,-3.11467 -5.37599,-3.15733 -9.72799,-8.40533 z"
         style="font-weight:bold;font-family:JuliaMono;-inkscape-font-specification:'JuliaMono Bold'"
         id="path78744" />
      <path
         d="m 549.43076,317.17884 q -7.424,0 -10.66666,-2.90134 -3.24267,-2.94399 -3.24267,-8.78933 v -27.47732 h -12.79999 v -8.27733 h 12.79999 v -17.15199 h 10.32533 v 17.15199 h 13.22666 v 8.27733 h -13.22666 v 22.95466 q 0,3.072 0.59734,4.736 0.64,1.664 2.09066,2.34666 1.49333,0.68267 4.224,0.68267 1.45067,0 4.096,-0.34133 2.688,-0.34134 4.26666,-0.68267 v 8.192 q -1.792,0.46933 -5.41866,0.85333 -3.584,0.42667 -6.272,0.42667 z"
         style="font-weight:bold;font-family:JuliaMono;-inkscape-font-specification:'JuliaMono Bold'"
         id="path78746" />
      <path
         d="m 588.47063,317.52017 q -7.424,0 -11.30667,-3.712 -3.88266,-3.712 -3.88266,-10.112 0,-8.78932 6.656,-12.28799 6.65599,-3.49867 16.63999,-3.49867 h 5.20533 v -1.87733 q 0,-1.92 -0.81067,-3.84 -0.81066,-1.96266 -2.77333,-3.32799 -1.96266,-1.36534 -5.248,-1.36534 -3.19999,0 -6.14399,1.32267 -2.90134,1.28 -5.76,3.456 l -5.12,-6.48533 q 3.92533,-3.28534 8.10666,-4.94933 4.224,-1.70667 9.984,-1.70667 9.77066,0 13.90933,4.65066 4.18133,4.65067 4.18133,12.84267 v 16.55466 q 0,5.37599 0.85333,13.48266 h -10.58133 q -0.29866,-2.60267 -0.42666,-6.05867 -3.968,6.912 -13.48266,6.912 z m -5.888,-14.46399 q 0,3.45599 2.432,5.11999 2.47466,1.664 6.01599,1.664 5.41867,0 8.02133,-3.79733 2.64534,-3.79733 2.64534,-10.70933 h -3.49867 q -7.80799,0 -11.73333,1.792 -3.88266,1.74933 -3.88266,5.93067 z"
         style="font-weight:bold;font-family:JuliaMono;-inkscape-font-specification:'JuliaMono Bold'"
         id="path78748" />
      <path
         d="m 651.83045,317.17884 q -7.424,0 -10.66666,-2.90134 -3.24267,-2.94399 -3.24267,-8.78933 v -27.47732 h -12.79999 v -8.27733 h 12.79999 v -17.15199 h 10.32533 v 17.15199 h 13.22666 v 8.27733 h -13.22666 v 22.95466 q 0,3.072 0.59733,4.736 0.64,1.664 2.09067,2.34666 1.49333,0.68267 4.224,0.68267 1.45066,0 4.096,-0.34133 2.688,-0.34134 4.26666,-0.68267 v 8.192 q -1.792,0.46933 -5.41866,0.85333 -3.584,0.42667 -6.272,0.42667 z"
         style="font-weight:bold;font-family:JuliaMono;-inkscape-font-specification:'JuliaMono Bold'"
         id="path78750" />
      <path
         d="m 678.15562,269.73352 h 23.12533 v 39.25332 h 11.60532 v 7.68 h -33.96265 v -7.68 h 11.94666 v -31.82932 h -12.71466 z m 9.81333,-14.25066 q 0,-3.712 1.536,-5.20533 1.536,-1.536 5.20533,-1.536 3.712,0 5.20533,1.536 1.536,1.49333 1.536,5.20533 0,3.66933 -1.536,5.20533 -1.49333,1.536 -5.20533,1.536 -3.62666,0 -5.20533,-1.536 -1.536,-1.57866 -1.536,-5.20533 z"
         style="font-weight:bold;font-family:JuliaMono;-inkscape-font-specification:'JuliaMono Bold'"
         id="path78752" />
      <path
         d="m 749.0675,317.43484 q -6.57066,0 -11.73332,-2.85867 -5.16267,-2.90133 -8.10667,-8.36266 -2.944,-5.46133 -2.944,-13.01333 0,-7.25333 2.85867,-12.71466 2.90133,-5.46133 8.192,-8.448 5.29066,-2.98666 12.33066,-2.98666 6.144,0 10.23999,2.304 4.096,2.30399 6.82667,6.05866 l -6.57067,6.144 q -2.38933,-2.688 -4.69333,-4.05333 -2.304,-1.408 -5.632,-1.408 -3.79733,0 -6.78399,1.83466 -2.944,1.83467 -4.608,5.20533 -1.664,3.37067 -1.664,7.808 0,4.736 1.792,8.192 1.83466,3.45599 4.736,5.29066 2.944,1.792 6.18666,1.792 3.02933,0 5.97333,-1.70667 2.98667,-1.70666 5.12,-4.26666 l 6.57066,6.05866 q -3.28533,4.05333 -7.59466,6.61333 -4.30933,2.51734 -10.496,2.51734 z"
         style="font-weight:bold;font-family:JuliaMono;-inkscape-font-specification:'JuliaMono Bold'"
         id="path78754" />
      <path
         d="m 790.24067,333.9895 q -1.792,0 -3.968,-0.256 -2.176,-0.21334 -3.54133,-0.59734 v -6.48533 q 4.992,0.768 6.74133,0.768 2.21867,0 4.13867,-0.85333 1.96266,-0.85333 3.15733,-2.47467 1.23733,-1.57866 1.32266,-3.66933 0.0853,-1.664 -0.21333,-3.28533 -0.256,-1.57867 -0.93866,-4.13867 l -0.72534,-2.90133 q -0.93866,-3.92533 -1.28,-5.888 -0.34133,-1.96266 -0.34133,-3.88266 0,-3.712 2.176,-6.69866 2.176,-2.98667 6.272,-4.43734 v -0.42666 q -4.18134,-1.28 -6.05867,-3.92533 -1.87733,-2.64534 -1.87733,-7.25333 0,-4.48 1.10933,-9.30133 l 0.256,-1.024 q 0.896,-3.968 1.23733,-5.93067 0.384,-1.96266 0.384,-3.2 0,-3.66933 -2.43199,-5.46133 -2.432,-1.792 -6.18667,-1.792 -0.81066,0 -2.64533,0.256 -1.792,0.256 -4.096,0.59734 v -6.57067 q 1.70667,-0.46933 3.75467,-0.68266 2.09066,-0.256 3.75466,-0.256 7.97866,0 12.45866,3.37066 4.52267,3.37067 4.52267,9.856 0,1.19466 -0.512,3.456 -0.46934,2.21866 -1.45067,6.05866 l -0.512,2.00533 q -0.85333,3.28533 -1.23733,5.20533 -0.384,1.92 -0.384,3.24267 0,2.304 1.36533,3.88266 1.408,1.536 4.30933,2.688 2.90134,1.10934 7.97867,2.304 v 5.97333 q -4.992,0.93867 -7.936,2.00534 -2.90133,1.06666 -4.30933,2.64533 -1.408,1.57866 -1.408,3.968 0,0.81066 0.17067,1.92 0.21333,1.06666 0.55466,2.47466 0.46934,1.96267 0.896,4.13867 0.42667,2.09066 1.28,5.33333 0.64,2.38933 0.896,3.712 0.29867,1.32266 0.29867,2.30399 0,6.48534 -4.52267,9.856 -4.48,3.37067 -12.45866,3.37067 z"
         style="font-weight:bold;font-family:JuliaMono;-inkscape-font-specification:'JuliaMono Bold'"
         id="path78756" />
    </g>
  </g>
  <metadata
     id="metadata78777">
    <rdf:RDF>
      <cc:Work
         rdf:about="">
        <dc:title>Learn-Static</dc:title>
      </cc:Work>
    </rdf:RDF>
  </metadata>
</svg>
